<svg width="19" height="24" viewBox="0 0 19 24" fill="none" xmlns="http://www.w3.org/2000/svg">
<line x1="9.28003" y1="23.42" x2="9.28003" y2="0.800013" stroke="#FB7129" stroke-width="2"/>
<path d="M9.24753 22.7307C9.56798 22.8225 9.88842 22.9143 10.2089 23.0061C10.2773 22.7976 10.3439 22.6018 10.4153 22.3976C11.5326 18.6259 14.087 15.8945 17.9106 15.3845C18.119 15.3409 18.316 15.303 18.5272 15.2641C18.3812 14.6136 18.2352 13.9632 18.0892 13.3127C17.867 13.3711 17.659 13.4288 17.4371 13.4928C15.5144 14.0469 13.431 14.9061 12.0026 16.5648C10.5777 18.2058 9.92972 20.1901 9.41148 22.0895C9.35392 22.3056 9.30156 22.512 9.24753 22.7307Z" fill="#FB7129"/>
<path d="M9.98074 23.2093C9.6603 23.3011 9.33985 23.3929 9.01941 23.4847C8.95097 23.2762 8.88436 23.0804 8.81301 22.8762C7.69566 19.1044 5.14129 16.3731 1.31764 15.8631C1.10925 15.8195 0.91231 15.7816 0.701088 15.7427C0.847078 15.0922 0.993068 14.4418 1.13906 13.7913C1.36125 13.8497 1.56932 13.9074 1.79118 13.9714C3.71389 14.5255 5.79728 15.3847 7.22572 17.0434C8.65053 18.6844 9.29855 20.6687 9.81679 22.5681C9.87435 22.7842 9.92671 22.9905 9.98074 23.2093Z" fill="#FB7129"/>
</svg>
