<svg width="53" height="282" viewBox="0 0 53 282" fill="none" xmlns="http://www.w3.org/2000/svg">
<path d="M1.58523 14V0.909091H9.43466V2.31534H3.17045V6.73864H8.84659V8.14489H3.17045V14H1.58523ZM11.9451 14V4.18182H13.4537V14H11.9451ZM12.7122 2.54545C12.4181 2.54545 12.1646 2.44531 11.9515 2.24503C11.7427 2.04474 11.6383 1.80398 11.6383 1.52273C11.6383 1.24148 11.7427 1.00071 11.9515 0.800426C12.1646 0.600142 12.4181 0.5 12.7122 0.5C13.0062 0.5 13.2576 0.600142 13.4664 0.800426C13.6795 1.00071 13.786 1.24148 13.786 1.52273C13.786 1.80398 13.6795 2.04474 13.4664 2.24503C13.2576 2.44531 13.0062 2.54545 12.7122 2.54545ZM20.1797 17.8864C19.451 17.8864 18.8246 17.7926 18.3004 17.6051C17.7763 17.4219 17.3395 17.179 16.9901 16.8764C16.6449 16.5781 16.37 16.2585 16.1655 15.9176L17.3672 15.0739C17.5036 15.2528 17.6761 15.4574 17.8849 15.6875C18.0938 15.9219 18.3793 16.1243 18.7415 16.2947C19.108 16.4695 19.5874 16.5568 20.1797 16.5568C20.9723 16.5568 21.6264 16.3651 22.142 15.9815C22.6577 15.598 22.9155 14.9972 22.9155 14.179V12.1847H22.7876C22.6768 12.3636 22.5192 12.5852 22.3146 12.8494C22.1143 13.1094 21.8246 13.3416 21.4453 13.5462C21.0703 13.7464 20.5632 13.8466 19.924 13.8466C19.1314 13.8466 18.4197 13.6591 17.7891 13.2841C17.1626 12.9091 16.6662 12.3636 16.2997 11.6477C15.9375 10.9318 15.7564 10.0625 15.7564 9.03977C15.7564 8.03409 15.9332 7.15838 16.2869 6.41264C16.6406 5.66264 17.1328 5.0831 17.7635 4.67401C18.3942 4.26065 19.1229 4.05398 19.9496 4.05398C20.5888 4.05398 21.0959 4.16051 21.4709 4.37358C21.8501 4.58239 22.1399 4.82102 22.3402 5.08949C22.5447 5.35369 22.7024 5.57102 22.8132 5.74148H22.9666V4.18182H24.424V14.2812C24.424 15.125 24.2322 15.8111 23.8487 16.3395C23.4695 16.8722 22.9581 17.2621 22.3146 17.5092C21.6754 17.7607 20.9638 17.8864 20.1797 17.8864ZM20.1286 12.4915C20.7337 12.4915 21.245 12.353 21.6626 12.076C22.0803 11.799 22.3977 11.4006 22.6151 10.8807C22.8324 10.3608 22.9411 9.73864 22.9411 9.0142C22.9411 8.30682 22.8345 7.68253 22.6214 7.14134C22.4084 6.60014 22.093 6.17614 21.6754 5.86932C21.2578 5.5625 20.7422 5.40909 20.1286 5.40909C19.4893 5.40909 18.9567 5.57102 18.5305 5.89489C18.1087 6.21875 17.7912 6.65341 17.5781 7.19886C17.3693 7.74432 17.2649 8.34943 17.2649 9.0142C17.2649 9.69602 17.3714 10.299 17.5845 10.8232C17.8018 11.343 18.1214 11.7521 18.5433 12.0504C18.9695 12.3445 19.4979 12.4915 20.1286 12.4915ZM27.1854 14V4.18182H28.6428V5.71591H28.7706C28.9751 5.19176 29.3054 4.7848 29.7614 4.49503C30.2173 4.20099 30.7649 4.05398 31.4041 4.05398C32.0518 4.05398 32.5909 4.20099 33.0213 4.49503C33.456 4.7848 33.7947 5.19176 34.0376 5.71591H34.1399C34.3913 5.20881 34.7685 4.80611 35.2713 4.50781C35.7741 4.20526 36.3771 4.05398 37.0803 4.05398C37.9581 4.05398 38.6761 4.32884 39.2344 4.87855C39.7926 5.42401 40.0717 6.27415 40.0717 7.42898V14H38.5632V7.42898C38.5632 6.70455 38.3651 6.18679 37.9688 5.87571C37.5724 5.56463 37.1058 5.40909 36.5689 5.40909C35.8786 5.40909 35.3438 5.6179 34.9645 6.03551C34.5852 6.44886 34.3956 6.97301 34.3956 7.60795V14H32.8615V7.27557C32.8615 6.71733 32.6804 6.26776 32.3182 5.92685C31.956 5.58168 31.4893 5.40909 30.9183 5.40909C30.5263 5.40909 30.1598 5.51349 29.8189 5.7223C29.4822 5.93111 29.2095 6.22088 29.0007 6.59162C28.7962 6.9581 28.6939 7.3821 28.6939 7.86364V14H27.1854ZM45.7191 14.2301C45.0969 14.2301 44.5323 14.1129 44.0252 13.8786C43.5181 13.6399 43.1154 13.2969 42.8171 12.8494C42.5188 12.3977 42.3697 11.8523 42.3697 11.2131C42.3697 10.6506 42.4805 10.1946 42.7021 9.84517C42.9237 9.49148 43.2198 9.21449 43.5906 9.0142C43.9613 8.81392 44.3704 8.66477 44.8178 8.56676C45.2695 8.46449 45.7234 8.38352 46.1793 8.32386C46.7759 8.24716 47.2596 8.18963 47.6303 8.15128C48.0053 8.10866 48.2781 8.03835 48.4485 7.94034C48.6232 7.84233 48.7106 7.67187 48.7106 7.42898V7.37784C48.7106 6.74716 48.538 6.2571 48.1928 5.90767C47.8519 5.55824 47.3342 5.38352 46.6396 5.38352C45.9194 5.38352 45.3548 5.54119 44.9457 5.85653C44.5366 6.17187 44.2489 6.50852 44.0827 6.86648L42.6509 6.35511C42.9066 5.75852 43.2475 5.29403 43.6737 4.96165C44.104 4.625 44.5728 4.39062 45.0799 4.25852C45.5913 4.12216 46.0941 4.05398 46.5884 4.05398C46.9038 4.05398 47.266 4.09233 47.6751 4.16903C48.0884 4.24148 48.4869 4.39276 48.8704 4.62287C49.2582 4.85298 49.5799 5.20028 49.8356 5.66477C50.0913 6.12926 50.2191 6.75142 50.2191 7.53125V14H48.7106V12.6705H48.6339C48.5316 12.8835 48.3612 13.1115 48.1225 13.3544C47.8839 13.5973 47.5664 13.804 47.1701 13.9744C46.7738 14.1449 46.2901 14.2301 45.7191 14.2301ZM45.9492 12.875C46.5458 12.875 47.0487 12.7578 47.4577 12.5234C47.8711 12.2891 48.1822 11.9865 48.391 11.6158C48.604 11.245 48.7106 10.8551 48.7106 10.446V9.06534C48.6467 9.14205 48.506 9.21236 48.2887 9.27628C48.0756 9.33594 47.8285 9.3892 47.5472 9.43608C47.2702 9.47869 46.9996 9.51705 46.7354 9.55114C46.4755 9.58097 46.2646 9.60653 46.1026 9.62784C45.7106 9.67898 45.3441 9.76207 45.0032 9.87713C44.6665 9.98793 44.3938 10.1562 44.185 10.3821C43.9805 10.6037 43.8782 10.9062 43.8782 11.2898C43.8782 11.8139 44.0721 12.2102 44.4599 12.4787C44.8519 12.7429 45.3484 12.875 45.9492 12.875Z" fill="black"/>
<circle cx="25" cy="257" r="24" stroke="#242424" stroke-width="2"/>
<path d="M7.79261 251.609V249.909H17.924V251.609H13.8395V263H11.8707V251.609H7.79261ZM22.7212 263.198C21.8008 263.198 20.9975 262.987 20.3114 262.565C19.6254 262.143 19.0927 261.553 18.7134 260.795C18.3342 260.036 18.1445 259.15 18.1445 258.136C18.1445 257.117 18.3342 256.227 18.7134 255.464C19.0927 254.701 19.6254 254.109 20.3114 253.687C20.9975 253.265 21.8008 253.054 22.7212 253.054C23.6417 253.054 24.445 253.265 25.131 253.687C25.8171 254.109 26.3498 254.701 26.729 255.464C27.1083 256.227 27.2979 257.117 27.2979 258.136C27.2979 259.15 27.1083 260.036 26.729 260.795C26.3498 261.553 25.8171 262.143 25.131 262.565C24.445 262.987 23.6417 263.198 22.7212 263.198ZM22.7276 261.594C23.3242 261.594 23.8185 261.436 24.2106 261.121C24.6026 260.805 24.8924 260.386 25.0799 259.862C25.2717 259.337 25.3675 258.76 25.3675 258.129C25.3675 257.503 25.2717 256.928 25.0799 256.403C24.8924 255.875 24.6026 255.451 24.2106 255.131C23.8185 254.812 23.3242 254.652 22.7276 254.652C22.1268 254.652 21.6282 254.812 21.2319 255.131C20.8398 255.451 20.5479 255.875 20.3562 256.403C20.1687 256.928 20.0749 257.503 20.0749 258.129C20.0749 258.76 20.1687 259.337 20.3562 259.862C20.5479 260.386 20.8398 260.805 21.2319 261.121C21.6282 261.436 22.1268 261.594 22.7276 261.594ZM33.5669 263.198C32.6465 263.198 31.8432 262.987 31.1571 262.565C30.4711 262.143 29.9384 261.553 29.5591 260.795C29.1799 260.036 28.9902 259.15 28.9902 258.136C28.9902 257.117 29.1799 256.227 29.5591 255.464C29.9384 254.701 30.4711 254.109 31.1571 253.687C31.8432 253.265 32.6465 253.054 33.5669 253.054C34.4874 253.054 35.2907 253.265 35.9767 253.687C36.6628 254.109 37.1955 254.701 37.5748 255.464C37.954 256.227 38.1436 257.117 38.1436 258.136C38.1436 259.15 37.954 260.036 37.5748 260.795C37.1955 261.553 36.6628 262.143 35.9767 262.565C35.2907 262.987 34.4874 263.198 33.5669 263.198ZM33.5733 261.594C34.1699 261.594 34.6642 261.436 35.0563 261.121C35.4483 260.805 35.7381 260.386 35.9256 259.862C36.1174 259.337 36.2132 258.76 36.2132 258.129C36.2132 257.503 36.1174 256.928 35.9256 256.403C35.7381 255.875 35.4483 255.451 35.0563 255.131C34.6642 254.812 34.1699 254.652 33.5733 254.652C32.9725 254.652 32.4739 254.812 32.0776 255.131C31.6855 255.451 31.3936 255.875 31.2019 256.403C31.0144 256.928 30.9206 257.503 30.9206 258.129C30.9206 258.76 31.0144 259.337 31.2019 259.862C31.3936 260.386 31.6855 260.805 32.0776 261.121C32.4739 261.436 32.9725 261.594 33.5733 261.594ZM42.1882 249.909V263H40.277V249.909H42.1882Z" fill="#242424"/>
<line x1="24.694" y1="32" x2="24.694" y2="232" stroke="#242424" stroke-width="2"/>
<path d="M25.0607 32.8794C24.7403 32.7876 24.4198 32.6958 24.0994 32.604C24.0309 32.8126 23.9643 33.0084 23.893 33.2125C22.7756 36.9843 20.2212 39.7156 16.3976 40.2257C16.1892 40.2692 15.9923 40.3071 15.781 40.346C15.927 40.9965 16.073 41.647 16.219 42.2975C16.4412 42.239 16.6493 42.1814 16.8711 42.1173C18.7938 41.5633 20.8772 40.7041 22.3057 39.0454C23.7305 37.4043 24.3785 35.42 24.8967 33.5206C24.9543 33.3046 25.0067 33.0982 25.0607 32.8794Z" fill="#242424"/>
<path d="M24.3275 32.4008C24.6479 32.309 24.9684 32.2172 25.2888 32.1254C25.3573 32.334 25.4239 32.5298 25.4952 32.7339C26.6126 36.5057 29.1669 39.237 32.9906 39.7471C33.199 39.7906 33.3959 39.8285 33.6071 39.8674C33.4611 40.5179 33.3152 41.1684 33.1692 41.8189C32.947 41.7604 32.7389 41.7028 32.5171 41.6387C30.5943 41.0847 28.5109 40.2255 27.0825 38.5667C25.6577 36.9257 25.0097 34.9414 24.4914 33.042C24.4339 32.826 24.3815 32.6196 24.3275 32.4008Z" fill="#242424"/>
</svg>
