<svg width="200" height="18" viewBox="0 0 200 18" fill="none" xmlns="http://www.w3.org/2000/svg">
<line x1="200" y1="9" x2="4.37114e-08" y2="9.00001" stroke="#242424" stroke-width="2"/>
<path d="M199.121 9.36672C199.212 9.04628 199.304 8.72584 199.396 8.4054C199.187 8.33695 198.992 8.27035 198.787 8.19899C195.016 7.08165 192.284 4.52727 191.774 0.703628C191.731 0.495232 191.693 0.298296 191.654 0.0870748C191.003 0.233065 190.353 0.379054 189.702 0.525044C189.761 0.74724 189.819 0.955305 189.883 1.17716C190.437 3.09988 191.296 5.18327 192.955 6.6117C194.596 8.03651 196.58 8.68453 198.479 9.20278C198.695 9.26034 198.902 9.3127 199.121 9.36672Z" fill="#242424"/>
<path d="M199.599 8.63352C199.691 8.95396 199.783 9.27441 199.875 9.59485C199.666 9.66329 199.47 9.7299 199.266 9.80125C195.494 10.9186 192.763 13.473 192.253 17.2966C192.21 17.505 192.172 17.7019 192.133 17.9132C191.482 17.7672 190.832 17.6212 190.181 17.4752C190.24 17.253 190.297 17.0449 190.361 16.8231C190.915 14.9004 191.775 12.817 193.433 11.3885C195.074 9.96373 197.059 9.31571 198.958 8.79747C199.174 8.73991 199.381 8.68755 199.599 8.63352Z" fill="#242424"/>
</svg>
