<svg width="665" height="334" viewBox="0 0 665 334" fill="none" xmlns="http://www.w3.org/2000/svg">
<path d="M332.5 0L334.193 307.88C334.2 309.074 335.916 309.255 336.17 308.088L401.839 7.28778L339.483 308.792C339.241 309.962 340.882 310.495 341.374 309.407L468.147 28.8326L344.467 310.784C343.988 311.877 345.482 312.74 346.189 311.778L528.526 63.6928L348.929 313.769C348.232 314.738 349.514 315.893 350.406 315.099L580.339 110.345L352.672 317.616C351.789 318.419 352.803 319.815 353.841 319.224L621.319 166.75L355.534 322.157C354.503 322.759 355.205 324.335 356.342 323.973L649.677 230.443L357.389 327.194C356.255 327.569 356.614 329.256 357.802 329.138L664.173 298.64L358.156 332.506C356.97 332.637 356.97 334.363 358.156 334.494L664.173 368.36L357.802 337.862C356.614 337.744 356.255 339.431 357.389 339.806L649.677 436.557L356.342 343.027C355.205 342.665 354.503 344.241 355.534 344.843L621.319 500.25L353.841 347.776C352.803 347.185 351.789 348.581 352.672 349.384L580.339 556.655L350.406 351.901C349.514 351.107 348.232 352.262 348.929 353.231L528.526 603.307L346.189 355.222C345.482 354.26 343.988 355.123 344.467 356.216L468.147 638.167L341.374 357.593C340.882 356.505 339.241 357.038 339.483 358.208L401.839 659.712L336.17 358.912C335.916 357.745 334.2 357.926 334.193 359.12L332.5 667L330.807 359.12C330.8 357.926 329.084 357.745 328.83 358.912L263.161 659.712L325.517 358.208C325.759 357.038 324.118 356.505 323.626 357.593L196.853 638.167L320.533 356.216C321.012 355.123 319.518 354.26 318.811 355.222L136.474 603.307L316.071 353.231C316.768 352.262 315.486 351.107 314.594 351.901L84.6612 556.655L312.328 349.384C313.211 348.581 312.197 347.185 311.159 347.776L43.6805 500.25L309.466 344.843C310.497 344.241 309.795 342.665 308.658 343.027L15.3227 436.557L307.611 339.806C308.745 339.431 308.386 337.744 307.198 337.862L0.826935 368.36L306.844 334.494C308.03 334.363 308.03 332.637 306.844 332.506L0.826935 298.64L307.198 329.138C308.386 329.256 308.745 327.569 307.611 327.194L15.3227 230.443L308.658 323.973C309.795 324.335 310.497 322.759 309.466 322.157L43.6805 166.75L311.159 319.224C312.197 319.815 313.211 318.419 312.328 317.616L84.6612 110.345L314.594 315.099C315.486 315.893 316.768 314.738 316.071 313.769L136.474 63.6928L318.811 311.778C319.518 312.74 321.012 311.877 320.533 310.784L196.853 28.8326L323.626 309.407C324.118 310.495 325.759 309.962 325.517 308.792L263.161 7.28778L328.83 308.088C329.084 309.255 330.8 309.074 330.807 307.88L332.5 0Z" fill="#E6E6E6"/>
</svg>
