<svg width="467" height="467" viewBox="0 0 467 467" fill="none" xmlns="http://www.w3.org/2000/svg">
<path d="M211.268 207.776V208.742C211.744 207.958 212.528 207.566 213.62 207.566C214.614 207.566 215.412 207.916 216.014 208.616C216.602 209.316 216.91 210.254 216.91 211.416C216.91 212.564 216.616 213.474 216.028 214.16C215.44 214.846 214.67 215.182 213.704 215.182C212.668 215.182 211.884 214.804 211.352 214.048V217.674H209.77V207.776H211.268ZM213.298 208.854C212.668 208.854 212.178 209.078 211.828 209.526C211.464 209.974 211.296 210.604 211.296 211.388C211.296 212.172 211.464 212.788 211.828 213.236C212.192 213.684 212.682 213.908 213.326 213.908C213.928 213.908 214.404 213.684 214.768 213.236C215.118 212.788 215.3 212.186 215.3 211.416C215.3 210.632 215.118 210.016 214.754 209.554C214.39 209.092 213.914 208.854 213.298 208.854ZM224.083 207.776V215H222.585V213.922C221.969 214.776 221.185 215.196 220.205 215.196C219.407 215.196 218.791 214.972 218.371 214.524C217.951 214.076 217.741 213.418 217.741 212.564V207.776H219.337V211.906C219.337 212.158 219.337 212.368 219.351 212.522C219.351 212.676 219.379 212.844 219.435 213.04C219.491 213.236 219.561 213.376 219.659 213.474C219.757 213.586 219.897 213.67 220.079 213.74C220.261 213.824 220.485 213.852 220.751 213.852C221.339 213.852 221.787 213.642 222.067 213.222C222.347 212.802 222.487 212.256 222.487 211.598V207.776H224.083ZM228.748 207.776V208.938H227.292V212.746C227.292 212.97 227.292 213.138 227.306 213.222C227.306 213.306 227.334 213.404 227.39 213.516C227.432 213.628 227.516 213.698 227.628 213.726C227.74 213.768 227.908 213.782 228.118 213.782C228.37 213.782 228.58 213.782 228.748 213.754V215.014C228.426 215.056 228.062 215.07 227.67 215.07C227.39 215.07 227.138 215.056 226.928 215.014C226.718 214.972 226.55 214.916 226.41 214.86C226.27 214.804 226.144 214.72 226.06 214.58C225.962 214.44 225.892 214.328 225.836 214.244C225.78 214.16 225.752 213.992 225.724 213.768C225.696 213.544 225.696 213.376 225.696 213.264V212.648V212.564V212.48V212.382V208.938H224.492V207.776H225.696V205.606H227.292V207.776H228.748ZM239.028 207.776L236.354 214.86C236.326 214.93 236.27 215.07 236.2 215.28C236.116 215.49 236.074 215.63 236.046 215.7C236.018 215.784 235.962 215.91 235.878 216.092C235.794 216.288 235.738 216.414 235.696 216.484L235.486 216.82C235.388 216.974 235.304 217.086 235.22 217.142C235.136 217.212 235.038 217.296 234.926 217.394C234.814 217.492 234.688 217.562 234.576 217.604C234.45 217.646 234.31 217.688 234.156 217.716C234.002 217.744 233.834 217.758 233.666 217.758C233.358 217.758 232.994 217.73 232.56 217.674V216.33C232.896 216.4 233.176 216.428 233.4 216.428C233.512 216.428 233.61 216.414 233.708 216.386C233.792 216.358 233.876 216.302 233.96 216.218C234.03 216.134 234.1 216.064 234.156 215.994C234.212 215.924 234.254 215.826 234.31 215.7C234.366 215.574 234.408 215.476 234.436 215.406C234.464 215.336 234.492 215.224 234.548 215.07C234.59 214.93 234.618 214.832 234.632 214.79L231.86 207.776H233.61L235.542 213.096L237.362 207.776H239.028ZM242.704 207.566C243.796 207.566 244.678 207.916 245.336 208.602C245.98 209.302 246.316 210.226 246.316 211.388C246.316 212.564 245.98 213.502 245.336 214.188C244.692 214.888 243.81 215.224 242.704 215.224C241.57 215.224 240.674 214.888 240.016 214.188C239.344 213.502 239.022 212.564 239.022 211.388C239.022 210.226 239.344 209.302 240.016 208.602C240.688 207.916 241.584 207.566 242.704 207.566ZM242.676 208.826C242.032 208.826 241.542 209.064 241.178 209.512C240.814 209.974 240.632 210.604 240.632 211.388C240.632 212.2 240.814 212.844 241.178 213.292C241.542 213.754 242.046 213.978 242.69 213.978C243.306 213.978 243.796 213.754 244.16 213.292C244.524 212.83 244.706 212.186 244.706 211.374C244.706 210.59 244.524 209.96 244.16 209.512C243.796 209.064 243.306 208.826 242.676 208.826ZM253.439 207.776V215H251.941V213.922C251.325 214.776 250.541 215.196 249.561 215.196C248.763 215.196 248.147 214.972 247.727 214.524C247.307 214.076 247.097 213.418 247.097 212.564V207.776H248.693V211.906C248.693 212.158 248.693 212.368 248.707 212.522C248.707 212.676 248.735 212.844 248.791 213.04C248.847 213.236 248.917 213.376 249.015 213.474C249.113 213.586 249.253 213.67 249.435 213.74C249.617 213.824 249.841 213.852 250.107 213.852C250.695 213.852 251.143 213.642 251.423 213.222C251.703 212.802 251.843 212.256 251.843 211.598V207.776H253.439ZM258.664 207.636V209.162C258.384 209.134 258.188 209.12 258.104 209.12C256.704 209.12 256.018 210.03 256.018 211.822V215H254.436V207.776H255.934V209.218C256.438 208.154 257.25 207.608 258.356 207.608L258.664 207.636ZM203.023 221.776V222.742C203.499 221.958 204.283 221.566 205.375 221.566C206.369 221.566 207.167 221.916 207.769 222.616C208.357 223.316 208.665 224.254 208.665 225.416C208.665 226.564 208.371 227.474 207.783 228.16C207.195 228.846 206.425 229.182 205.459 229.182C204.423 229.182 203.639 228.804 203.107 228.048V231.674H201.525V221.776H203.023ZM205.053 222.854C204.423 222.854 203.933 223.078 203.583 223.526C203.219 223.974 203.051 224.604 203.051 225.388C203.051 226.172 203.219 226.788 203.583 227.236C203.947 227.684 204.437 227.908 205.081 227.908C205.683 227.908 206.159 227.684 206.523 227.236C206.873 226.788 207.055 226.186 207.055 225.416C207.055 224.632 206.873 224.016 206.509 223.554C206.145 223.092 205.669 222.854 205.053 222.854ZM209.426 224.002C209.594 222.378 210.644 221.552 212.59 221.552C213.486 221.552 214.214 221.734 214.746 222.084C215.278 222.448 215.558 222.994 215.558 223.736V227.404C215.558 227.614 215.572 227.754 215.628 227.824C215.684 227.908 215.782 227.936 215.936 227.936C216.048 227.936 216.16 227.936 216.3 227.908V229.028C215.88 229.14 215.544 229.182 215.264 229.182C214.578 229.182 214.186 228.902 214.088 228.314C213.472 228.902 212.632 229.182 211.554 229.182C210.798 229.182 210.21 229 209.776 228.608C209.328 228.216 209.118 227.698 209.118 227.026C209.118 226.83 209.132 226.634 209.188 226.452C209.23 226.284 209.286 226.13 209.342 225.99C209.398 225.864 209.496 225.738 209.636 225.626C209.776 225.514 209.888 225.43 209.972 225.346C210.056 225.276 210.21 225.206 210.406 225.136C210.602 225.08 210.756 225.024 210.854 224.996C210.952 224.968 211.12 224.926 211.372 224.884C211.61 224.856 211.764 224.828 211.848 224.814C211.932 224.8 212.1 224.772 212.352 224.744C212.912 224.674 213.304 224.618 213.514 224.562C213.71 224.506 213.85 224.436 213.934 224.324C213.99 224.254 214.032 224.086 214.032 223.806C214.032 223.078 213.528 222.714 212.548 222.714C212.016 222.714 211.638 222.812 211.4 223.008C211.148 223.204 210.994 223.54 210.938 224.002H209.426ZM214.018 225.374C213.892 225.444 213.752 225.5 213.598 225.556C213.43 225.612 213.304 225.64 213.206 225.654C213.108 225.668 212.954 225.682 212.744 225.71C212.534 225.738 212.394 225.766 212.338 225.766C212.142 225.794 211.988 225.822 211.876 225.85C211.764 225.878 211.624 225.906 211.456 225.962C211.288 226.018 211.162 226.088 211.078 226.172C210.994 226.256 210.91 226.354 210.854 226.494C210.784 226.634 210.756 226.788 210.756 226.97C210.756 227.32 210.868 227.586 211.092 227.768C211.316 227.964 211.638 228.048 212.058 228.048C212.758 228.048 213.304 227.866 213.696 227.474C213.906 227.264 214.018 226.844 214.018 226.228V225.374ZM218.353 218.99V220.558H216.757V218.99H218.353ZM218.353 221.776V229H216.757V221.776H218.353ZM221.058 221.776V222.84C221.632 222 222.43 221.58 223.452 221.58C224.264 221.58 224.88 221.804 225.286 222.252C225.692 222.7 225.902 223.344 225.902 224.184V229H224.306V224.8C224.306 224.52 224.292 224.282 224.264 224.086C224.236 223.89 224.166 223.694 224.082 223.498C223.998 223.302 223.858 223.162 223.662 223.064C223.466 222.966 223.214 222.91 222.906 222.91C221.73 222.91 221.142 223.652 221.142 225.108V229H219.546V221.776H221.058ZM231.874 221.776V222.742C232.35 221.958 233.134 221.566 234.226 221.566C235.22 221.566 236.018 221.916 236.62 222.616C237.208 223.316 237.516 224.254 237.516 225.416C237.516 226.564 237.222 227.474 236.634 228.16C236.046 228.846 235.276 229.182 234.31 229.182C233.274 229.182 232.49 228.804 231.958 228.048V231.674H230.376V221.776H231.874ZM233.904 222.854C233.274 222.854 232.784 223.078 232.434 223.526C232.07 223.974 231.902 224.604 231.902 225.388C231.902 226.172 232.07 226.788 232.434 227.236C232.798 227.684 233.288 227.908 233.932 227.908C234.534 227.908 235.01 227.684 235.374 227.236C235.724 226.788 235.906 226.186 235.906 225.416C235.906 224.632 235.724 224.016 235.36 223.554C234.996 223.092 234.52 222.854 233.904 222.854ZM241.692 221.566C242.784 221.566 243.666 221.916 244.324 222.602C244.968 223.302 245.304 224.226 245.304 225.388C245.304 226.564 244.968 227.502 244.324 228.188C243.68 228.888 242.798 229.224 241.692 229.224C240.558 229.224 239.662 228.888 239.004 228.188C238.332 227.502 238.01 226.564 238.01 225.388C238.01 224.226 238.332 223.302 239.004 222.602C239.676 221.916 240.572 221.566 241.692 221.566ZM241.664 222.826C241.02 222.826 240.53 223.064 240.166 223.512C239.802 223.974 239.62 224.604 239.62 225.388C239.62 226.2 239.802 226.844 240.166 227.292C240.53 227.754 241.034 227.978 241.678 227.978C242.294 227.978 242.784 227.754 243.148 227.292C243.512 226.83 243.694 226.186 243.694 225.374C243.694 224.59 243.512 223.96 243.148 223.512C242.784 223.064 242.294 222.826 241.664 222.826ZM247.723 218.99V220.558H246.127V218.99H247.723ZM247.723 221.776V229H246.127V221.776H247.723ZM250.428 221.776V222.84C251.002 222 251.8 221.58 252.822 221.58C253.634 221.58 254.25 221.804 254.656 222.252C255.062 222.7 255.272 223.344 255.272 224.184V229H253.676V224.8C253.676 224.52 253.662 224.282 253.634 224.086C253.606 223.89 253.536 223.694 253.452 223.498C253.368 223.302 253.228 223.162 253.032 223.064C252.836 222.966 252.584 222.91 252.276 222.91C251.1 222.91 250.512 223.652 250.512 225.108V229H248.916V221.776H250.428ZM259.909 221.776V222.938H258.453V226.746C258.453 226.97 258.453 227.138 258.467 227.222C258.467 227.306 258.495 227.404 258.551 227.516C258.593 227.628 258.677 227.698 258.789 227.726C258.901 227.768 259.069 227.782 259.279 227.782C259.531 227.782 259.741 227.782 259.909 227.754V229.014C259.587 229.056 259.223 229.07 258.831 229.07C258.551 229.07 258.299 229.056 258.089 229.014C257.879 228.972 257.711 228.916 257.571 228.86C257.431 228.804 257.305 228.72 257.221 228.58C257.123 228.44 257.053 228.328 256.997 228.244C256.941 228.16 256.913 227.992 256.885 227.768C256.857 227.544 256.857 227.376 256.857 227.264V226.648V226.564V226.48V226.382V222.938H255.653V221.776H256.857V219.606H258.453V221.776H259.909ZM266.209 223.876H264.683C264.585 223.12 264.067 222.728 263.115 222.728C262.695 222.728 262.387 222.812 262.163 222.952C261.939 223.106 261.827 223.316 261.827 223.568C261.827 223.652 261.827 223.736 261.841 223.792C261.855 223.862 261.883 223.918 261.925 223.974C261.967 224.03 262.009 224.072 262.037 224.1C262.065 224.142 262.135 224.184 262.219 224.212C262.303 224.254 262.359 224.282 262.415 224.31C262.471 224.338 262.555 224.366 262.681 224.394C262.793 224.422 262.891 224.45 262.961 224.464C263.031 224.492 263.143 224.52 263.311 224.548C263.465 224.576 263.591 224.604 263.675 224.618C264.039 224.702 264.291 224.772 264.459 224.814C264.627 224.856 264.865 224.94 265.173 225.066C265.481 225.192 265.719 225.318 265.873 225.458C266.013 225.598 266.153 225.78 266.279 226.018C266.405 226.256 266.475 226.522 266.475 226.83C266.475 227.558 266.181 228.146 265.621 228.566C265.047 229 264.277 229.21 263.325 229.21C262.289 229.21 261.505 229 260.959 228.566C260.399 228.146 260.105 227.516 260.077 226.69H261.603C261.687 227.6 262.261 228.048 263.353 228.048C263.815 228.048 264.193 227.964 264.473 227.768C264.753 227.572 264.907 227.32 264.907 226.998C264.907 226.844 264.865 226.704 264.795 226.592C264.725 226.48 264.613 226.396 264.459 226.312C264.291 226.228 264.137 226.172 263.997 226.13C263.857 226.088 263.661 226.032 263.423 225.976L263.339 225.962C263.311 225.962 263.297 225.948 263.269 225.948C263.241 225.948 263.213 225.934 263.185 225.92C262.149 225.668 261.505 225.472 261.225 225.332C260.553 225.024 260.231 224.492 260.231 223.75C260.231 223.078 260.483 222.546 261.015 222.154C261.533 221.762 262.261 221.566 263.185 221.566C264.067 221.566 264.795 221.762 265.355 222.14C265.915 222.532 266.209 223.106 266.209 223.876ZM222.639 233.032V236.77C223.171 235.986 223.927 235.594 224.921 235.594C225.705 235.594 226.307 235.818 226.755 236.238C227.189 236.658 227.413 237.288 227.413 238.1V243H225.803V238.618C225.803 238.072 225.705 237.652 225.509 237.358C225.313 237.078 224.949 236.924 224.403 236.924C223.787 236.924 223.339 237.134 223.059 237.526C222.779 237.932 222.639 238.464 222.639 239.122V243H221.057V233.032H222.639ZM234.99 240.746C234.808 241.53 234.416 242.146 233.828 242.58C233.24 243.028 232.526 243.238 231.714 243.238C230.622 243.238 229.754 242.888 229.11 242.188C228.466 241.488 228.158 240.578 228.158 239.472C228.158 238.352 228.48 237.414 229.138 236.672C229.796 235.944 230.636 235.566 231.658 235.566C232.708 235.566 233.548 235.93 234.164 236.658C234.78 237.386 235.088 238.366 235.088 239.612V239.78H229.754C229.768 240.508 229.95 241.082 230.3 241.474C230.636 241.866 231.126 242.062 231.742 242.062C232.176 242.062 232.526 241.964 232.806 241.754C233.086 241.544 233.296 241.208 233.464 240.746H234.99ZM233.492 238.716C233.436 238.114 233.254 237.638 232.918 237.288C232.582 236.938 232.162 236.756 231.644 236.756C231.112 236.756 230.692 236.924 230.37 237.26C230.048 237.596 229.852 238.086 229.782 238.716H233.492ZM239.83 235.636V237.162C239.55 237.134 239.354 237.12 239.27 237.12C237.87 237.12 237.184 238.03 237.184 239.822V243H235.602V235.776H237.1V237.218C237.604 236.154 238.416 235.608 239.522 235.608L239.83 235.636ZM246.325 240.746C246.143 241.53 245.751 242.146 245.163 242.58C244.575 243.028 243.861 243.238 243.049 243.238C241.957 243.238 241.089 242.888 240.445 242.188C239.801 241.488 239.493 240.578 239.493 239.472C239.493 238.352 239.815 237.414 240.473 236.672C241.131 235.944 241.971 235.566 242.993 235.566C244.043 235.566 244.883 235.93 245.499 236.658C246.115 237.386 246.423 238.366 246.423 239.612V239.78H241.089C241.103 240.508 241.285 241.082 241.635 241.474C241.971 241.866 242.461 242.062 243.077 242.062C243.511 242.062 243.861 241.964 244.141 241.754C244.421 241.544 244.631 241.208 244.799 240.746H246.325ZM244.827 238.716C244.771 238.114 244.589 237.638 244.253 237.288C243.917 236.938 243.497 236.756 242.979 236.756C242.447 236.756 242.027 236.924 241.705 237.26C241.383 237.596 241.187 238.086 241.117 238.716H244.827Z" fill="#1A1A1A"/>
<rect x="0.5" y="0.5" width="466" height="466" stroke="#1A1A1A"/>
</svg>
