<svg width="146" height="40" viewBox="0 0 146 40" fill="none" xmlns="http://www.w3.org/2000/svg">
<rect width="146" height="40" fill="#E6E1DD"/>
<path d="M29.828 22.918C29.666 24.124 29.198 25.06 28.406 25.744C27.614 26.41 26.606 26.752 25.382 26.752C23.942 26.752 22.808 26.302 21.944 25.438C21.08 24.556 20.648 23.386 20.648 21.928C20.648 20.434 21.08 19.228 21.944 18.31C22.808 17.41 23.978 16.942 25.418 16.942C26.642 16.942 27.65 17.266 28.442 17.896C29.216 18.526 29.666 19.372 29.774 20.452H27.272C27.074 19.39 26.462 18.85 25.436 18.85C24.734 18.85 24.194 19.12 23.798 19.66C23.402 20.2 23.222 20.938 23.222 21.892C23.222 22.81 23.402 23.53 23.78 24.034C24.158 24.538 24.698 24.79 25.382 24.79C26.498 24.79 27.146 24.178 27.362 22.918H29.828ZM35.1599 16.942C36.5819 16.942 37.7339 17.392 38.5979 18.292C39.4619 19.192 39.9119 20.38 39.9119 21.856C39.9119 23.35 39.4619 24.538 38.5979 25.438C37.7339 26.338 36.5639 26.788 35.1239 26.788C33.6659 26.788 32.4959 26.338 31.6319 25.438C30.7499 24.538 30.3179 23.35 30.3179 21.856C30.3179 20.38 30.7499 19.192 31.6499 18.292C32.5319 17.392 33.7019 16.942 35.1599 16.942ZM35.0879 18.886C34.4039 18.886 33.8639 19.156 33.4679 19.696C33.0719 20.218 32.8739 20.938 32.8739 21.874C32.8739 22.81 33.0719 23.548 33.4679 24.088C33.8639 24.61 34.4039 24.88 35.1239 24.88C35.8259 24.88 36.3659 24.61 36.7619 24.07C37.1579 23.53 37.3559 22.792 37.3559 21.838C37.3559 20.92 37.1399 20.2 36.7439 19.678C36.3479 19.156 35.7899 18.886 35.0879 18.886ZM49.6198 26.5H47.0278V21.082C47.0278 20.434 46.9198 19.93 46.7038 19.588C46.4878 19.246 46.0558 19.066 45.4438 19.066C44.0938 19.066 43.4278 19.894 43.4278 21.514V26.5H40.8898V17.212H43.3198V18.508C44.0758 17.482 45.1018 16.96 46.3978 16.96C47.3878 16.96 48.1798 17.248 48.7558 17.824C49.3318 18.4 49.6198 19.228 49.6198 20.29V26.5ZM59.5698 26.5H56.9778V21.082C56.9778 20.434 56.8698 19.93 56.6538 19.588C56.4378 19.246 56.0058 19.066 55.3938 19.066C54.0438 19.066 53.3778 19.894 53.3778 21.514V26.5H50.8398V17.212H53.2698V18.508C54.0258 17.482 55.0518 16.96 56.3478 16.96C57.3378 16.96 58.1298 17.248 58.7058 17.824C59.2818 18.4 59.5698 19.228 59.5698 20.29V26.5ZM69.5017 23.62C69.2137 24.628 68.6737 25.402 67.8997 25.942C67.1257 26.5 66.2077 26.77 65.1277 26.77C63.7057 26.77 62.5537 26.338 61.6897 25.438C60.8257 24.556 60.3937 23.386 60.3937 21.91C60.3937 20.47 60.8257 19.282 61.7077 18.346C62.5717 17.41 63.6877 16.942 65.0557 16.942C66.4597 16.942 67.5757 17.428 68.4037 18.382C69.2317 19.336 69.6457 20.632 69.6457 22.252V22.504H62.9857C62.9857 23.314 63.1837 23.926 63.5617 24.34C63.9397 24.772 64.4797 24.97 65.1637 24.97C66.0637 24.97 66.6937 24.52 67.0537 23.62H69.5017ZM67.0357 20.884C66.9817 20.272 66.7837 19.786 66.4417 19.39C66.1177 18.994 65.6497 18.796 65.0377 18.796C64.4797 18.796 64.0117 18.994 63.6337 19.354C63.2737 19.732 63.0397 20.236 62.9677 20.884H67.0357ZM79.2436 22.918C79.0816 24.124 78.6136 25.06 77.8216 25.744C77.0296 26.41 76.0216 26.752 74.7976 26.752C73.3576 26.752 72.2236 26.302 71.3596 25.438C70.4956 24.556 70.0636 23.386 70.0636 21.928C70.0636 20.434 70.4956 19.228 71.3596 18.31C72.2236 17.41 73.3936 16.942 74.8336 16.942C76.0576 16.942 77.0656 17.266 77.8576 17.896C78.6316 18.526 79.0816 19.372 79.1896 20.452H76.6876C76.4896 19.39 75.8776 18.85 74.8516 18.85C74.1496 18.85 73.6096 19.12 73.2136 19.66C72.8176 20.2 72.6376 20.938 72.6376 21.892C72.6376 22.81 72.8176 23.53 73.1956 24.034C73.5736 24.538 74.1136 24.79 74.7976 24.79C75.9136 24.79 76.5616 24.178 76.7776 22.918H79.2436ZM85.1156 17.212V18.958H83.2256V23.332C83.2256 23.602 83.2256 23.8 83.2436 23.926C83.2436 24.052 83.2976 24.178 83.3696 24.322C83.4416 24.448 83.5496 24.538 83.6936 24.574C83.8376 24.61 84.0536 24.628 84.3416 24.628C84.6476 24.628 84.8996 24.628 85.1156 24.592V26.536C84.4856 26.59 83.9636 26.608 83.5676 26.608C82.4516 26.608 81.6776 26.428 81.2816 26.032C80.8856 25.636 80.6876 24.88 80.6876 23.764V18.94H79.1396V17.212H80.6876V14.404H83.2256V17.212H85.1156Z" fill="#1A1A1A"/>
<rect x="106.5" y="0.5" width="39" height="39" fill="#A52422" stroke="#E6E1DD"/>
<path d="M131.354 20.3536C131.549 20.1583 131.549 19.8417 131.354 19.6464L128.172 16.4645C127.976 16.2692 127.66 16.2692 127.464 16.4645C127.269 16.6597 127.269 16.9763 127.464 17.1716L130.293 20L127.464 22.8284C127.269 23.0237 127.269 23.3403 127.464 23.5355C127.66 23.7308 127.976 23.7308 128.172 23.5355L131.354 20.3536ZM121 20V20.5H131V20V19.5H121V20Z" fill="#E6E1DD"/>
</svg>
