<svg width="1302" height="330" viewBox="0 0 1302 330" fill="none" xmlns="http://www.w3.org/2000/svg">
<path d="M242.072 99.05L201.209 99.4941C196.767 56.4096 170.561 35.0894 122.591 35.0894C99.9379 35.0894 82.1711 39.5311 69.7343 48.8587C57.2975 57.7421 51.0792 70.6231 51.0792 87.5015C51.0792 93.2757 51.9675 98.6058 53.7442 103.047C55.5209 107.489 58.63 111.043 63.0717 114.596C67.5135 118.149 71.511 120.814 75.0644 123.479C79.0619 125.7 85.2803 127.921 93.2753 130.142C101.715 132.807 108.377 134.584 113.263 135.472C118.593 136.36 126.144 138.137 136.804 140.358C150.129 143.023 160.789 145.688 169.228 147.909C178.112 150.13 188.328 153.683 199.876 158.569C211.869 163.899 221.196 169.229 228.303 175.447C235.41 181.666 241.184 189.661 246.514 199.432C251.844 209.648 254.065 221.197 254.065 233.634C254.065 255.842 247.847 274.497 235.41 289.599C222.973 304.701 207.871 314.917 190.104 320.691C172.338 326.909 152.794 329.574 131.03 329.574C91.4987 329.574 59.9626 320.247 35.9774 301.592C11.9922 282.936 -0.000434191 254.954 -0.000434191 218.088H40.4191C41.3074 245.182 50.635 264.725 67.5135 277.162C84.8361 289.599 107.045 295.817 134.583 295.817C156.348 295.817 175.003 290.932 190.549 282.048C205.65 273.165 213.645 258.507 213.645 238.075C213.645 228.304 211.425 220.308 207.427 213.646C202.985 206.983 196.767 201.653 187.884 197.212C179 192.77 170.117 189.661 161.233 186.996C152.35 184.331 140.357 181.221 126.144 178.112C123.923 177.668 122.591 177.224 121.702 176.78C88.8336 169.673 67.5135 163.455 57.7417 159.013C26.6498 145.688 11.548 123.035 11.548 90.1666C11.548 59.963 22.6523 37.7545 44.8608 22.6527C67.0693 7.55086 94.1637 -1.31721e-05 125.7 -1.31721e-05C160.345 -1.31721e-05 188.328 8.43922 208.76 24.8735C229.636 41.752 240.74 66.1814 242.072 99.05ZM382.18 86.6132C416.826 86.6132 443.476 97.2733 463.019 118.593C482.119 139.469 491.89 168.785 491.89 206.539C491.89 245.626 482.119 275.83 463.019 297.15C443.476 318.914 416.381 329.574 381.736 329.574C346.647 329.574 319.108 318.914 299.565 297.594C279.577 276.274 269.805 246.959 269.805 208.76C269.805 171.45 279.577 141.69 300.009 119.482C319.996 97.7174 347.535 86.6132 382.18 86.6132ZM381.292 118.593C359.083 118.593 341.317 126.589 328.436 142.579C315.111 159.013 308.892 180.777 308.892 207.872C308.892 236.299 315.111 258.063 327.992 274.053C340.872 290.043 359.083 297.594 382.18 297.594C404.389 297.594 421.711 289.599 434.148 273.609C446.585 257.619 453.248 235.854 453.248 207.428C453.248 180.333 446.585 158.569 433.704 142.579C420.823 126.589 403.501 118.593 381.292 118.593ZM716.294 238.964C712.74 266.502 702.524 288.711 684.757 304.701C666.991 321.135 644.338 329.13 615.911 329.13C581.266 329.13 554.616 318.47 535.516 297.15C516.861 275.83 507.089 246.959 507.089 210.981C507.089 172.782 517.305 142.579 536.849 120.37C556.836 98.1616 583.487 86.6132 617.244 86.6132C645.67 86.6132 667.879 93.7199 684.757 107.933C701.636 122.147 711.852 142.134 714.517 168.341H675.43C668.767 135.028 649.668 118.593 618.132 118.593C595.923 118.593 578.601 126.589 566.164 142.579C553.283 158.569 547.065 180.777 547.065 208.316C547.065 235.854 552.839 258.063 565.276 274.053C577.268 290.043 594.147 298.038 615.467 298.038C632.345 298.038 646.559 292.708 657.219 282.936C667.879 272.721 674.986 258.063 678.095 238.964H716.294ZM779.858 6.21837V52.4121H741.66V6.21837H779.858ZM779.858 93.2757V322.468H741.66V93.2757H779.858ZM1023.57 292.264V322.023C1015.57 324.688 1007.13 326.465 997.804 326.465C976.039 326.465 964.935 314.917 964.491 292.708C942.727 316.693 915.188 329.13 881.431 329.13C858.778 329.13 841.012 323.356 827.687 311.808C814.361 300.259 808.143 284.269 808.143 264.281C808.143 223.418 835.237 199.432 889.426 192.77C892.98 191.882 897.865 191.437 904.972 190.993C930.734 187.884 946.28 184.331 952.498 180.777C959.161 175.891 962.714 167.896 962.714 156.348C962.714 131.03 945.392 118.593 910.746 118.593C892.98 118.593 879.21 122.147 870.327 129.254C860.999 136.36 855.669 148.353 853.893 165.231H817.026C817.471 140.358 826.354 121.258 843.233 107.933C860.111 94.1641 883.208 87.5015 912.967 87.5015C944.948 87.5015 968.933 94.6083 984.923 109.71C989.809 114.152 993.362 120.37 996.027 128.365C998.248 135.916 999.58 142.134 1000.02 147.02C1000.02 151.906 1000.47 159.457 1000.47 169.229C1000.47 180.333 1000.02 197.212 999.58 219.864C998.692 242.961 998.692 259.84 998.692 270.944C998.692 279.383 999.58 285.157 1001.8 288.711C1004.02 292.264 1008.02 293.597 1014.24 293.597C1016.46 293.597 1019.57 293.152 1023.57 292.264ZM962.714 203.874C960.049 205.651 956.94 207.428 954.275 209.204C951.166 210.537 947.168 211.869 942.727 212.758C938.285 213.646 935.176 214.09 933.399 214.534C931.622 214.978 928.069 215.423 921.851 216.311C915.632 217.199 912.079 217.643 912.079 217.643C902.751 218.532 896.533 219.42 893.868 219.864C891.203 220.308 885.873 221.641 877.878 223.862C869.883 225.638 864.553 228.304 861.444 230.969C857.89 233.634 854.781 237.187 851.672 242.517C848.563 247.847 847.23 254.065 847.23 261.172C847.23 272.721 851.228 282.048 859.223 289.155C867.218 295.817 878.766 299.371 892.98 299.371C910.746 299.371 927.181 294.041 941.394 283.381C955.608 272.721 962.714 259.84 962.714 245.626V203.874ZM1081.36 6.21837V322.468H1043.16V6.21837H1081.36ZM1292.2 159.901H1254.44C1251.78 132.363 1233.12 118.149 1198.48 118.149C1183.82 118.149 1172.27 121.258 1164.27 126.589C1155.83 132.363 1151.84 139.914 1151.84 149.241C1151.84 151.906 1151.84 154.571 1152.73 157.236C1153.17 159.901 1154.06 162.122 1155.83 163.899C1157.61 165.676 1158.94 167.452 1160.28 168.785C1161.61 170.561 1163.83 171.894 1166.94 173.226C1170.05 174.559 1172.27 175.447 1174.05 176.336C1175.82 177.224 1178.49 178.556 1182.93 179.445C1187.37 180.333 1190.48 181.221 1192.26 181.666C1194.03 182.11 1197.14 182.998 1202.47 183.886C1207.8 185.219 1210.91 186.107 1212.69 186.107C1223.35 188.772 1231.79 190.549 1237.12 191.882C1242.45 193.658 1250 196.323 1259.77 200.321C1269.54 204.318 1276.65 208.316 1281.98 212.758C1286.86 217.199 1291.31 222.973 1295.3 230.524C1299.3 238.075 1301.52 246.514 1301.52 255.842C1301.52 278.051 1292.64 296.262 1275.32 309.587C1257.99 322.912 1234.9 329.574 1206.47 329.574C1175.38 329.574 1151.39 322.912 1134.51 309.143C1117.64 295.817 1108.75 275.83 1107.86 250.068H1145.17C1146.95 282.492 1167.83 298.482 1207.36 298.482C1224.24 298.482 1237.56 295.373 1247.78 288.267C1257.99 281.16 1263.32 271.832 1263.32 260.284C1263.32 252.733 1260.66 246.514 1255.33 241.184C1250 236.299 1243.78 232.745 1237.56 230.524C1230.9 228.304 1221.57 225.638 1209.58 222.529C1207.8 222.529 1206.47 222.085 1205.58 221.641C1202.92 221.197 1197.14 219.864 1188.26 218.088C1179.38 216.311 1173.16 214.534 1169.6 213.202C1165.61 212.313 1159.83 210.537 1152.73 207.872C1145.62 205.207 1140.29 202.542 1136.74 199.877C1133.18 197.212 1129.18 193.658 1124.74 189.217C1120.3 184.775 1117.64 179.889 1115.86 174.115C1114.08 168.341 1113.19 161.678 1113.19 154.127C1113.19 133.695 1120.75 117.261 1136.74 104.824C1152.73 92.8316 1174.05 86.6132 1200.7 86.6132C1227.35 86.6132 1249.55 93.2757 1266.43 105.713C1283.31 118.593 1292.2 136.804 1292.2 159.901Z" fill="#C9BFB8"/>
</svg>
