<svg width="129" height="40" viewBox="0 0 129 40" fill="none" xmlns="http://www.w3.org/2000/svg">
<rect width="129" height="40" fill="#E6E1DD"/>
<path d="M26.03 13.684V15.556C25.49 15.538 25.22 15.52 25.184 15.52C24.716 15.52 24.41 15.592 24.266 15.718C24.122 15.844 24.05 16.096 24.05 16.474V17.212H25.868V18.94H24.068V26.5H21.512V18.94H20V17.212H21.512V16.726C21.512 15.646 21.746 14.854 22.25 14.368C22.736 13.882 23.546 13.63 24.698 13.63C24.824 13.63 24.968 13.648 25.112 13.648C25.256 13.648 25.436 13.666 25.616 13.666C25.796 13.684 25.922 13.684 26.03 13.684ZM30.8181 16.942C32.2401 16.942 33.3921 17.392 34.2561 18.292C35.1201 19.192 35.5701 20.38 35.5701 21.856C35.5701 23.35 35.1201 24.538 34.2561 25.438C33.3921 26.338 32.2221 26.788 30.7821 26.788C29.3241 26.788 28.1541 26.338 27.2901 25.438C26.4081 24.538 25.9761 23.35 25.9761 21.856C25.9761 20.38 26.4081 19.192 27.3081 18.292C28.1901 17.392 29.3601 16.942 30.8181 16.942ZM30.7461 18.886C30.0621 18.886 29.5221 19.156 29.1261 19.696C28.7301 20.218 28.5321 20.938 28.5321 21.874C28.5321 22.81 28.7301 23.548 29.1261 24.088C29.5221 24.61 30.0621 24.88 30.7821 24.88C31.4841 24.88 32.0241 24.61 32.4201 24.07C32.8161 23.53 33.0141 22.792 33.0141 21.838C33.0141 20.92 32.7981 20.2 32.4021 19.678C32.0061 19.156 31.4481 18.886 30.7461 18.886ZM39.158 13.684V26.5H36.602V13.684H39.158ZM43.0787 13.684V26.5H40.5227V13.684H43.0787ZM48.9433 16.942C50.3653 16.942 51.5173 17.392 52.3813 18.292C53.2453 19.192 53.6953 20.38 53.6953 21.856C53.6953 23.35 53.2453 24.538 52.3813 25.438C51.5173 26.338 50.3473 26.788 48.9073 26.788C47.4493 26.788 46.2793 26.338 45.4153 25.438C44.5333 24.538 44.1013 23.35 44.1013 21.856C44.1013 20.38 44.5333 19.192 45.4333 18.292C46.3153 17.392 47.4853 16.942 48.9433 16.942ZM48.8713 18.886C48.1873 18.886 47.6473 19.156 47.2513 19.696C46.8553 20.218 46.6573 20.938 46.6573 21.874C46.6573 22.81 46.8553 23.548 47.2513 24.088C47.6473 24.61 48.1873 24.88 48.9073 24.88C49.6093 24.88 50.1493 24.61 50.5453 24.07C50.9413 23.53 51.1393 22.792 51.1393 21.838C51.1393 20.92 50.9233 20.2 50.5273 19.678C50.1313 19.156 49.5733 18.886 48.8713 18.886ZM53.7732 17.212H56.4912L58.2192 23.53L59.7852 17.212H62.2512L63.8712 23.494L65.5992 17.212H68.2092L65.2752 26.5H62.6472L60.9912 20.254L59.3892 26.5H56.7432L53.7732 17.212Z" fill="#1A1A1A"/>
<rect x="89.5" y="0.5" width="39" height="39" fill="#A52422" stroke="#E6E1DD"/>
<path d="M114.354 20.3536C114.549 20.1583 114.549 19.8417 114.354 19.6464L111.172 16.4645C110.976 16.2692 110.66 16.2692 110.464 16.4645C110.269 16.6597 110.269 16.9763 110.464 17.1716L113.293 20L110.464 22.8284C110.269 23.0237 110.269 23.3403 110.464 23.5355C110.66 23.7308 110.976 23.7308 111.172 23.5355L114.354 20.3536ZM104 20V20.5H114V20V19.5H104V20Z" fill="#E6E1DD"/>
</svg>
