<svg width="1335" height="129" viewBox="0 0 1335 129" fill="none" xmlns="http://www.w3.org/2000/svg">
<path d="M0.00108486 2.58359H27.0422L46.6772 85.9461L68.2068 2.58359H93.5256L114.711 86.9795L135.035 2.58359H161.559L128.49 125.216H101.621L80.6078 41.5091L59.9394 125.216H32.5538L0.00108486 2.58359ZM265.992 2.58359V24.6299H200.715V51.3266H260.653V72.5117H200.715V102.653H267.198V125.216H174.018V2.58359H265.992ZM285.53 2.58359H343.574C354.942 2.58359 364.415 5.16714 371.649 10.3342C378.883 15.5013 382.672 23.0797 382.672 33.4139C382.672 39.27 381.122 44.2648 378.194 48.743C375.093 53.2212 371.132 56.4937 365.965 58.7327C380.777 63.0386 388.356 73.0284 388.356 88.7019C388.356 100.414 384.394 109.37 376.644 115.743C368.721 122.116 358.903 125.216 346.847 125.216H285.53V2.58359ZM311.71 23.4242V52.36H336.168C349.602 52.36 356.492 47.5373 356.492 38.0643C356.492 32.3805 354.597 28.5913 350.98 26.5245C347.191 24.4576 342.368 23.4242 336.168 23.4242H311.71ZM311.71 70.6171L311.538 104.031H338.579C345.641 104.031 351.153 102.825 355.286 100.586C359.42 98.1749 361.487 93.869 361.487 87.324C361.487 80.6068 359.248 76.1286 354.942 73.8896C350.636 71.6505 344.78 70.6171 337.374 70.6171H311.71ZM455.084 125.216V2.58359H504.688C523.634 2.58359 538.274 7.92292 548.608 18.4294C558.943 29.108 564.11 44.2648 564.11 63.8998C564.11 83.707 558.943 98.8639 548.608 109.37C538.274 120.049 523.634 125.216 504.688 125.216H455.084ZM481.781 102.825H501.243C525.012 102.825 536.896 89.9076 536.896 63.8998C536.896 51.4988 533.968 41.8535 528.112 35.1363C522.256 28.4191 513.3 24.9743 501.416 24.9743H481.781V102.825ZM674.55 2.58359V24.6299H609.272V51.3266H669.21V72.5117H609.272V102.653H675.755V125.216H582.575V2.58359H674.55ZM785.029 39.0978L759.365 39.27C758.332 27.0412 750.581 21.0129 736.113 21.0129C729.913 21.0129 725.09 22.2186 721.646 24.6299C718.201 27.0412 716.306 30.4859 716.306 34.9641C716.306 36.342 716.651 37.7199 716.995 38.9255C717.512 39.9589 718.373 40.9924 719.579 42.0258C720.957 43.0592 722.162 43.7481 723.368 44.4371C724.746 45.126 726.64 45.815 729.052 46.5039C731.463 47.1929 733.702 47.8818 735.769 48.5708C737.836 49.0875 740.592 49.7764 744.209 50.8098C747.998 51.671 751.098 52.5322 753.854 53.3934C765.91 56.8381 775.039 61.144 780.895 66.3111C786.751 71.4782 789.679 78.8844 789.679 88.5297C789.679 95.4191 788.301 101.62 785.373 106.787C782.617 111.954 778.656 116.088 773.833 119.188C769.011 122.288 763.671 124.527 757.815 125.905C751.959 127.283 745.759 128.144 739.214 128.144C722.679 128.144 709.589 124.183 700.288 116.604C690.988 109.026 686.165 98.1749 685.993 84.396H712.689C713.206 99.725 722.507 107.476 740.419 107.476C747.481 107.476 752.993 105.926 757.126 102.998C761.26 100.07 763.155 96.1081 763.155 91.1132C763.155 86.8073 761.432 83.707 757.643 81.8124C753.854 79.7456 746.103 77.162 734.047 73.7173C733.358 73.5451 732.841 73.3728 732.497 73.3728C732.152 73.2006 731.808 73.0284 731.119 72.8561C730.602 72.6839 730.085 72.5117 729.569 72.5117C725.435 71.306 722.679 70.4448 720.957 69.9281C719.407 69.4114 716.823 68.5502 713.378 67.3446C709.934 65.9667 707.35 64.9332 705.8 63.8998C704.077 62.8664 702.183 61.3163 699.772 59.5939C697.36 57.6993 695.81 55.8047 694.777 53.7379C693.743 51.671 692.71 49.2597 691.849 46.3317C690.988 43.4037 690.643 40.3034 690.643 36.8587C690.643 25.6633 694.949 16.707 703.561 9.98976C712.173 3.44477 723.54 3.3199e-05 737.836 3.3199e-05C751.615 3.3199e-05 762.81 3.27254 771.594 9.81753C780.206 16.3625 784.684 26.0078 785.029 39.0978ZM833.154 2.58359V125.216H806.113V2.58359H833.154ZM966.107 58.905L965.935 125.216H948.884L946.3 111.265C937.171 122.633 924.943 128.144 909.441 128.144C892.39 128.144 878.439 122.288 867.76 110.404C857.081 98.6916 851.742 83.3626 851.742 64.4165C851.742 45.4705 857.426 30.1414 868.621 18.0849C879.989 6.02832 894.457 3.3199e-05 912.025 3.3199e-05C926.148 3.3199e-05 937.86 3.96148 947.506 11.8844C957.151 19.8072 962.835 30.1414 964.385 42.887H938.377C937.171 36.5142 934.243 31.5193 929.421 27.9024C924.77 24.4576 918.914 22.563 911.853 22.563C901.519 22.563 893.596 26.3522 887.74 33.7584C881.884 41.1646 878.956 51.3266 878.956 64.4165C878.956 77.851 881.884 88.1852 887.74 95.5914C893.596 102.998 902.035 106.615 912.714 106.615C920.981 106.615 927.871 104.203 933.382 99.0361C938.722 93.869 941.65 87.1518 941.994 78.8844H914.608V58.905H966.107ZM987.601 125.216V2.58359H1014.99L1065.45 84.7405V2.58359H1091.29V125.216H1064.42L1013.61 42.887V125.216H987.601ZM1207.24 2.58359V24.6299H1141.96V51.3266H1201.9V72.5117H1141.96V102.653H1208.44V125.216H1115.26V2.58359H1207.24ZM1227.98 2.58359L1288.95 2.75582C1301.01 2.75582 1311 5.51161 1318.75 11.3677C1326.33 17.0515 1330.29 25.8355 1330.29 37.5476C1330.29 44.6093 1328.57 50.8098 1325.12 56.1492C1321.68 61.4885 1316.86 65.2777 1310.83 67.689C1321.33 69.7559 1327.36 79.4011 1328.91 96.2803C1328.91 96.797 1328.91 98.5194 1329.26 101.62C1329.43 104.548 1329.6 106.959 1329.95 108.681C1330.12 110.404 1330.46 112.643 1330.81 115.226C1331.15 117.638 1331.67 119.877 1332.36 121.599C1333.05 123.321 1333.74 124.527 1334.77 125.388H1306.87C1305.83 123.494 1305.14 121.082 1304.8 118.327C1304.28 115.571 1303.94 111.954 1303.59 107.476C1303.25 102.998 1303.08 100.586 1303.08 100.07C1302.04 91.4577 1299.98 85.6016 1296.53 82.1569C1293.09 78.8844 1287.23 77.162 1278.62 77.162H1254.68V125.216H1227.98V2.58359ZM1254.68 23.9409V57.8715H1280.17C1287.58 57.8715 1293.43 56.6659 1297.57 54.2546C1301.7 51.8433 1303.94 47.3651 1303.94 40.4756C1303.94 33.9307 1301.87 29.6247 1297.74 27.3857C1293.6 24.9743 1288.27 23.9409 1281.38 23.9409H1254.68Z" fill="#E6E1DD"/>
</svg>
